<svg viewBox='0 0 320 320' xmlns='http://www.w3.org/2000/svg'>
<path d='m297.06 130.97c7.26-21.79 4.76-45.66-6.85-65.48-17.46-30.4-52.56-46.04-86.84-38.68-15.25-17.18-37.16-26.95-60.13-26.81-35.04-.08-66.13 22.48-76.91 55.82-22.51 4.61-41.94 18.7-53.31 38.67-17.59 30.32-13.58 68.54 9.92 94.54-7.26 21.79-4.76 45.66 6.85 65.48 17.46 30.4 52.56 46.04 86.84 38.68 15.24 17.18 37.16 26.95 60.13 26.8 35.06.09 66.16-22.49 76.94-55.86 22.51-4.61 41.94-18.7 53.31-38.67 17.57-30.32 13.55-68.51-9.94-94.51zm-120.28 168.11c-14.03.02-27.62-4.89-38.39-13.88.49-.26 1.34-.73 1.89-1.07l63.72-36.8c3.26-1.85 5.26-5.32 5.24-9.07v-89.83l26.93 15.55c.29.14.48.42.52.74v74.39c-.04 33.08-26.83 59.9-59.91 59.97zm-128.84-55.03c-7.03-12.14-9.56-26.37-7.15-40.18.47.28 1.3.79 1.89 1.13l63.72 36.8c3.23 1.89 7.23 1.89 10.47 0l77.79-44.92v31.1c.02.32-.13.63-.38.83l-64.41 37.19c-28.69 16.52-65.33 6.7-81.92-21.95zm-16.77-139.09c7-12.16 18.05-21.46 31.21-26.29 0 .55-.03 1.52-.03 2.2v73.61c-.02 3.74 1.98 7.21 5.23 9.06l77.79 44.91-26.93 15.55c-.27.18-.61.21-.91.08l-64.42-37.22c-28.63-16.58-38.45-53.21-21.95-81.89zm221.26 51.49-77.79-44.92 26.93-15.54c.27-.18.61-.21.91-.08l64.42 37.19c28.68 16.57 38.51 53.26 21.94 81.94-7.01 12.14-18.05 21.44-31.2 26.28v-75.81c.03-3.74-1.96-7.2-5.2-9.06zm26.8-40.34c-.47-.29-1.3-.79-1.89-1.13l-63.72-36.8c-3.23-1.89-7.23-1.89-10.47 0l-77.79 44.92v-31.1c-.02-.32.13-.63.38-.83l64.41-37.16c28.69-16.55 65.37-6.7 81.91 22 6.99 12.12 9.52 26.31 7.15 40.1zm-168.51 55.43-26.94-15.55c-.29-.14-.48-.42-.52-.74v-74.39c.02-33.12 26.89-59.96 60.01-59.94 14.01 0 27.57 4.92 38.34 13.88-.49.26-1.33.73-1.89 1.07l-63.72 36.8c-3.26 1.85-5.26 5.31-5.24 9.06l-.04 89.79zm14.63-31.54 34.65-20.01 34.65 20v40.01l-34.65 20-34.65-20z'/>
</svg>
C:\Users\chez>curl https://www.logo.wine/a/logo/Spotify/Spotify-Logo.wine.svg
<svg xmlns="http://www.w3.org/2000/svg" height="800" width="1200" viewBox="-83.76405 -41.87075 725.9551 251.2245"><path d="M83.743 0C37.494 0 0 37.493 0 83.742c0 46.251 37.494 83.741 83.743 83.741 46.254 0 83.744-37.49 83.744-83.741 0-46.246-37.49-83.738-83.745-83.738zm38.404 120.78a5.217 5.217 0 01-7.18 1.73c-19.662-12.01-44.414-14.73-73.564-8.07a5.222 5.222 0 01-6.249-3.93 5.213 5.213 0 013.926-6.25c31.9-7.288 59.263-4.15 81.337 9.34 2.46 1.51 3.24 4.72 1.73 7.18zm10.25-22.802c-1.89 3.072-5.91 4.042-8.98 2.152-22.51-13.836-56.823-17.843-83.448-9.761-3.453 1.043-7.1-.903-8.148-4.35a6.538 6.538 0 014.354-8.143c30.413-9.228 68.222-4.758 94.072 11.127 3.07 1.89 4.04 5.91 2.15 8.976zm.88-23.744c-26.99-16.031-71.52-17.505-97.289-9.684-4.138 1.255-8.514-1.081-9.768-5.219a7.835 7.835 0 015.221-9.771c29.581-8.98 78.756-7.245 109.83 11.202a7.823 7.823 0 012.74 10.733c-2.2 3.722-7.02 4.949-10.73 2.739zm94.56 3.072c-14.46-3.448-17.03-5.868-17.03-10.953 0-4.804 4.52-8.037 11.25-8.037 6.52 0 12.98 2.455 19.76 7.509.2.153.46.214.71.174a.933.933 0 00.63-.386l7.06-9.952a.95.95 0 00-.18-1.288c-8.07-6.473-17.15-9.62-27.77-9.62-15.61 0-26.52 9.369-26.52 22.774 0 14.375 9.41 19.465 25.67 23.394 13.83 3.187 16.17 5.857 16.17 10.629 0 5.29-4.72 8.58-12.32 8.58-8.44 0-15.33-2.85-23.03-9.51a.98.98 0 00-.69-.23c-.26.02-.49.14-.65.33l-7.92 9.42c-.33.4-.29.98.09 1.32 8.96 8 19.98 12.22 31.88 12.22 16.82 0 27.69-9.19 27.69-23.42.03-12.007-7.16-18.657-24.77-22.941zm62.86-14.26c-7.29 0-13.27 2.872-18.21 8.757v-6.624a.945.945 0 00-.94-.949h-12.95c-.52 0-.94.426-.94.949v73.601c0 .52.42.95.94.95h12.95c.52 0 .94-.43.94-.95v-23.23c4.94 5.53 10.92 8.24 18.21 8.24 13.55 0 27.27-10.43 27.27-30.369.02-19.943-13.7-30.376-27.26-30.376zm12.21 30.375c0 10.149-6.25 17.239-15.21 17.239-8.85 0-15.53-7.41-15.53-17.239 0-9.83 6.68-17.238 15.53-17.238 8.81-.001 15.21 7.247 15.21 17.237zm50.21-30.375c-17.45 0-31.12 13.436-31.12 30.592 0 16.972 13.58 30.262 30.91 30.262 17.51 0 31.22-13.39 31.22-30.479 0-17.031-13.62-30.373-31.01-30.373zm0 47.714c-9.28 0-16.28-7.46-16.28-17.344 0-9.929 6.76-17.134 16.07-17.134 9.34 0 16.38 7.457 16.38 17.351 0 9.927-6.8 17.127-16.17 17.127zm68.27-46.53h-14.25V49.664a.944.944 0 00-.94-.948h-12.95c-.52 0-.95.426-.95.948V64.23h-6.22c-.52 0-.94.426-.94.949v11.127c0 .522.42.949.94.949h6.22v28.795c0 11.63 5.79 17.53 17.22 17.53 4.64 0 8.49-.96 12.12-3.02.3-.16.48-.48.48-.82v-10.6c0-.32-.17-.63-.45-.8a.918.918 0 00-.92-.04c-2.49 1.25-4.9 1.83-7.6 1.83-4.15 0-6.01-1.89-6.01-6.11V77.26h14.25c.52 0 .94-.426.94-.949V65.185a.918.918 0 00-.93-.949zm49.64.057v-1.789c0-5.263 2.02-7.61 6.54-7.61 2.7 0 4.87.536 7.3 1.346.3.094.61.047.85-.132a.94.94 0 00.39-.77v-10.91a.937.937 0 00-.67-.909c-2.56-.763-5.84-1.546-10.76-1.546-11.95 0-18.28 6.734-18.28 19.467v2.74h-6.22c-.52 0-.95.426-.95.948v11.184c0 .522.43.949.95.949h6.22v44.405c0 .53.43.95.95.95h12.94c.53 0 .95-.42.95-.95V77.258h12.09l18.52 44.402c-2.1 4.66-4.17 5.59-6.99 5.59-2.28 0-4.69-.68-7.14-2.03a1.03 1.03 0 00-.75-.07c-.25.09-.46.27-.56.51l-4.39 9.63c-.21.46-.03.99.41 1.23 4.58 2.48 8.71 3.54 13.82 3.54 9.56 0 14.85-4.46 19.5-16.44l22.46-58.037a.925.925 0 00-.1-.881.924.924 0 00-.77-.412h-13.48c-.41 0-.77.257-.9.636l-13.81 39.434-15.12-39.46a.944.944 0 00-.88-.61h-22.12zm-28.78-.057h-12.95c-.52 0-.95.426-.95.949v56.481c0 .53.43.95.95.95h12.95c.52 0 .95-.42.95-.95V65.183a.947.947 0 00-.95-.949zm-6.4-25.719c-5.13 0-9.29 4.152-9.29 9.281a9.289 9.289 0 009.29 9.289c5.13 0 9.28-4.157 9.28-9.289 0-5.128-4.16-9.281-9.28-9.281zm113.42 43.88c-5.12 0-9.11-4.115-9.11-9.112s4.04-9.159 9.16-9.159 9.11 4.114 9.11 9.107c0 4.997-4.04 9.164-9.16 9.164zm.05-17.365c-4.67 0-8.2 3.71-8.2 8.253 0 4.541 3.51 8.201 8.15 8.201 4.67 0 8.2-3.707 8.2-8.253 0-4.541-3.51-8.201-8.15-8.201zm2.02 9.138l2.58 3.608h-2.18l-2.32-3.31h-1.99v3.31h-1.82v-9.564h4.26c2.23 0 3.69 1.137 3.69 3.051.01 1.568-.9 2.526-2.21 2.905zm-1.54-4.315h-2.37v3.025h2.37c1.18 0 1.89-.579 1.89-1.514 0-.984-.71-1.511-1.89-1.511z" fill="#ffffff"/></svg>
